<?xml version="1.0" encoding="utf-8"?>
<!-- Generator: Adobe Illustrator 19.2.1, SVG Export Plug-In . SVG Version: 6.00 Build 0)  -->
<svg version="1.1" xmlns="http://www.w3.org/2000/svg" xmlns:xlink="http://www.w3.org/1999/xlink" x="0px" y="0px"
	 viewBox="0 0 228 50" enable-background="new 0 0 228 50" xml:space="preserve">
<g id="鏡">
</g>
<g id="クローバー">
	<path fill="none" d="M57.9,28.3c0,0.1-0.1,0.2-0.1,0.2c0.4,0,0.8,0,1.3-0.2C59,28.4,58.5,28.4,57.9,28.3z"/>
	<path fill="none" d="M4.3,30.9c0.4,0.2,0.8,0.2,1.1,0.1c0-0.1-0.1-0.1-0.1-0.2C4.8,31,4.3,30.9,4.3,30.9z"/>
	<path fill="none" d="M59,14.1c-0.5-0.2-0.9-0.2-1.3-0.2c0,0.1,0.1,0.2,0.1,0.2C58.5,14,59,14.1,59,14.1z"/>
	<path fill="none" d="M5.3,18.9c0-0.1,0.1-0.1,0.1-0.2c-0.3,0-0.7,0-1.1,0.1C4.3,18.8,4.8,18.8,5.3,18.9z"/>
	<path fill="none" d="M65.4,21.7c-0.4-0.9-1.8-0.6-1.8-0.6c0.4-0.6,1.6-0.1,1.6-0.1c-0.5-0.7-2-0.4-2-0.4c0.5-0.8,2-0.3,2-0.3
		s-0.2-0.4-1.3-0.6c-1-0.2-2,0.1-2,0.1c0.1-0.2,0.3-0.4,0.5-0.6c-2.8-7.3-10.9-13-21-14.8c-0.1,0.1-0.2,0.2-0.3,0.2
		c0,0,0.4-0.8,0-1.5c0,0,0.1,1.9-1,2.2c0,0,0.3-0.9,0.1-1.9c-0.2-0.9-0.7-1.2-0.7-1.2S40,3.6,39.1,4c0,0,0.3-1.4-0.5-1.8
		c0,0,0.5,1.1-0.2,1.4c0,0,0.3-1.2-0.7-1.6c-1-0.4-1.8,0.7-1.8,0.7s-0.1,0.9,1,1.4c1.1,0.5,1.8,0.1,1.8,0.1S38.4,5,37.2,5
		c-1.2,0-1.7-0.4-1.7-0.4s1,1.1,0.5,1.7c0,0-0.3-0.4-0.8-0.6c0,0,0.5,0.8,0.3,1.4c-0.3,0.6-1.2,1.1-1.2,1.1s-0.9-0.5-1.2-1.1
		c-0.3-0.6,0.3-1.4,0.3-1.4c-0.6,0.1-0.8,0.6-0.8,0.6c-0.5-0.6,0.5-1.7,0.5-1.7S32.6,5,31.4,5c-1.2,0-1.5-0.7-1.5-0.7
		s0.7,0.4,1.8-0.1c1.1-0.5,1-1.4,1-1.4S31.8,1.6,30.8,2c-1,0.4-0.7,1.6-0.7,1.6C29.5,3.3,30,2.2,30,2.2C29.2,2.6,29.5,4,29.5,4
		c-0.9-0.4-0.3-1.8-0.3-1.8s-0.4,0.2-0.7,1.2c-0.2,0.9,0.1,1.9,0.1,1.9c-1.1-0.3-1-2.2-1-2.2c-0.4,0.7,0,1.5,0,1.5
		c-0.1,0-0.2-0.1-0.3-0.2c-10.2,1.8-18.2,7.5-21,14.8c0.2,0.1,0.4,0.3,0.5,0.6c0,0-1-0.3-2-0.1c-1,0.2-1.3,0.6-1.3,0.6
		s1.5-0.5,2,0.3c0,0-1.6-0.3-2,0.4c0,0,1.2-0.4,1.6,0.1c0,0-1.3-0.3-1.8,0.6S4,23.4,4,23.4s1,0.1,1.5-0.9c0.5-1,0.1-1.6,0.1-1.6
		s0.8,0.3,0.8,1.4c0,1.1-0.5,1.5-0.5,1.5s1.2-0.9,1.9-0.4c0,0-0.5,0.2-0.7,0.7c0,0,0.9-0.5,1.6-0.2c0.7,0.2,1.2,1,1.2,1
		s-0.5,0.8-1.2,1c-0.7,0.2-1.6-0.2-1.6-0.2c0.2,0.5,0.7,0.7,0.7,0.7C7.2,26.9,6,26,6,26s0.5,0.4,0.5,1.5c0,1.1-0.8,1.4-0.8,1.4
		s0.4-0.6-0.1-1.6C5,26.3,4,26.4,4,26.4S2.8,27.1,3.2,28C3.6,28.9,5,28.6,5,28.6c-0.4,0.6-1.6,0.2-1.6,0.2c0.5,0.7,2,0.4,2,0.4
		c-0.5,0.8-2,0.3-2,0.3s0.2,0.4,1.3,0.6c1,0.2,2-0.1,2-0.1c-0.1,0.2-0.3,0.4-0.5,0.6c2.8,7.3,10.9,13,21,14.8
		c0.1-0.1,0.2-0.2,0.3-0.2c0,0-0.4,0.8,0,1.5c0,0-0.1-1.9,1-2.2c0,0-0.3,0.9-0.1,1.9c0.2,0.9,0.7,1.2,0.7,1.2s-0.6-1.4,0.3-1.8
		c0,0-0.3,1.4,0.5,1.8c0,0-0.5-1.1,0.2-1.4c0,0-0.3,1.2,0.7,1.6c1,0.4,1.8-0.7,1.8-0.7s0.1-0.9-1-1.4c-1.1-0.5-1.8-0.1-1.8-0.1
		s0.3-0.7,1.5-0.7c1.2,0,1.7,0.4,1.7,0.4s-1-1.1-0.5-1.7c0,0,0.3,0.4,0.8,0.6c0,0-0.5-0.8-0.3-1.4c0.3-0.6,1.2-1.1,1.2-1.1
		s0.9,0.5,1.2,1.1c0.3,0.6-0.3,1.4-0.3,1.4c0.6-0.1,0.8-0.6,0.8-0.6c0.5,0.6-0.5,1.7-0.5,1.7s0.5-0.4,1.7-0.4c1.2,0,1.5,0.7,1.5,0.7
		s-0.7-0.4-1.8,0.1c-1.1,0.5-1,1.4-1,1.4s0.8,1.1,1.8,0.7c1-0.4,0.7-1.6,0.7-1.6c0.6,0.3,0.2,1.4,0.2,1.4c0.8-0.4,0.5-1.8,0.5-1.8
		c0.9,0.4,0.3,1.8,0.3,1.8s0.4-0.2,0.7-1.2c0.2-0.9-0.1-1.9-0.1-1.9c1.1,0.3,1,2.2,1,2.2c0.4-0.7,0-1.5,0-1.5c0.1,0,0.2,0.1,0.3,0.2
		c10.2-1.8,18.2-7.5,21-14.8c-0.2-0.1-0.4-0.3-0.5-0.6c0,0,1,0.3,2,0.1c1-0.2,1.3-0.6,1.3-0.6s-1.5,0.5-2-0.3c0,0,1.6,0.3,2-0.4
		c0,0-1.2,0.4-1.6-0.2c0,0,1.3,0.3,1.8-0.6c0.4-0.9-0.8-1.6-0.8-1.6s-1-0.1-1.5,0.9c-0.5,1-0.1,1.6-0.1,1.6s-0.8-0.3-0.8-1.4
		c0-1.1,0.5-1.5,0.5-1.5s-1.2,0.9-1.9,0.4c0,0,0.5-0.2,0.7-0.7c0,0-0.9,0.5-1.6,0.2c-0.7-0.2-1.2-1-1.2-1s0.5-0.8,1.2-1
		c0.7-0.2,1.6,0.2,1.6,0.2c-0.2-0.5-0.7-0.7-0.7-0.7c0.7-0.4,1.9,0.4,1.9,0.4s-0.5-0.4-0.5-1.5c0-1.1,0.8-1.4,0.8-1.4
		s-0.4,0.6,0.1,1.6c0.5,1,1.5,0.9,1.5,0.9S65.8,22.6,65.4,21.7z M34.3,41.3c-13.1,0-23.7-7.4-23.7-16.4c0-9.1,10.6-16.4,23.7-16.4
		C47.4,8.4,58,15.8,58,24.9C58,33.9,47.4,41.3,34.3,41.3z"/>
	<path fill="none" d="M34.3,4.7c0.7,0,1.3-0.5,1.3-1.2c0-0.7-0.6-1.2-1.3-1.2c-0.7,0-1.3,0.5-1.3,1.2C33,4.1,33.6,4.7,34.3,4.7z
		 M34.3,2.6c0.5,0,0.9,0.4,0.9,0.8c0,0.5-0.4,0.8-0.9,0.8s-0.9-0.4-0.9-0.8C33.4,3,33.8,2.6,34.3,2.6z"/>
	<path fill="none" d="M34.3,45.1c-0.7,0-1.3,0.5-1.3,1.2c0,0.7,0.6,1.2,1.3,1.2c0.7,0,1.3-0.5,1.3-1.2C35.6,45.6,35,45.1,34.3,45.1z
		 M34.3,47.1c-0.5,0-0.9-0.4-0.9-0.8c0-0.5,0.4-0.8,0.9-0.8c0.5,0,0.9,0.4,0.9,0.8C35.2,46.8,34.8,47.1,34.3,47.1z"/>
	<path fill="none" d="M4.8,26.1c0.7,0,1.3-0.5,1.3-1.2c0-0.7-0.6-1.2-1.3-1.2c-0.7,0-1.3,0.5-1.3,1.2C3.5,25.5,4.1,26.1,4.8,26.1z
		 M4.8,24c0.5,0,0.9,0.4,0.9,0.8c0,0.5-0.4,0.8-0.9,0.8s-0.9-0.4-0.9-0.8C3.9,24.4,4.3,24,4.8,24z"/>
	<path fill="none" d="M58.5,19.8c-0.9,0-1.6,0.6-1.6,1.4c0,0.8,0.7,1.4,1.6,1.4c0.9,0,1.6-0.6,1.6-1.4
		C60.1,20.4,59.4,19.8,58.5,19.8z M58.5,22.2c-0.6,0-1.1-0.4-1.1-1c0-0.6,0.5-1,1.1-1c0.6,0,1.1,0.4,1.1,1
		C59.6,21.8,59.1,22.2,58.5,22.2z"/>
	<path fill="#6D6155" d="M67.6,24.9c0-0.4-0.4-0.5-0.4-0.5s0.2-0.3,0-0.6c-0.2-0.3-0.6-0.4-0.9-0.2C66,23.6,65.3,24,65.3,24
		s1.1-0.6,1.5-1.6c0.4-1.1,0.4-2.5-1.3-3.5c-1.1-0.7-1.9-0.7-2.4-0.5C60,11,51.8,5.3,41.6,3.5c0-0.4-0.2-0.9-0.7-1.5
		c-1.1-1.5-2.7-1.5-3.9-1.2c-1.2,0.4-1.8,1.4-1.8,1.4s0.5-0.7,0.6-1C36,0.9,36,0.5,35.6,0.4c-0.4-0.2-0.7,0-0.7,0S34.7,0,34.3,0
		c-0.4,0-0.6,0.4-0.6,0.4s-0.3-0.2-0.7,0c-0.4,0.2-0.4,0.5-0.2,0.8c0.2,0.3,0.6,1,0.6,1s-0.6-1-1.8-1.4c-1.2-0.4-2.7-0.4-3.9,1.2
		c-0.5,0.6-0.7,1.1-0.7,1.5C16.8,5.3,8.6,11,5.5,18.4c-0.5-0.2-1.3-0.2-2.4,0.5c-1.7,1-1.7,2.5-1.3,3.5C2.3,23.5,3.4,24,3.4,24
		s-0.8-0.4-1.1-0.6c-0.3-0.1-0.7-0.1-0.9,0.2c-0.2,0.3,0,0.6,0,0.6S1,24.5,1,24.9c0,0.4,0.4,0.5,0.4,0.5s-0.2,0.3,0,0.6
		c0.2,0.3,0.6,0.4,0.9,0.2c0.3-0.1,1.1-0.6,1.1-0.6s-1.1,0.6-1.5,1.6c-0.4,1.1-0.4,2.5,1.3,3.5c1.1,0.7,1.9,0.7,2.4,0.5
		c3.1,7.4,11.2,13,21.5,14.9c0,0.4,0.2,0.9,0.7,1.5c1.1,1.5,2.7,1.5,3.9,1.2c1.2-0.4,1.8-1.4,1.8-1.4s-0.5,0.7-0.6,1
		c-0.2,0.3-0.1,0.7,0.2,0.8c0.4,0.2,0.7,0,0.7,0s0.2,0.4,0.6,0.4c0.4,0,0.6-0.4,0.6-0.4s0.3,0.2,0.7,0c0.4-0.2,0.4-0.5,0.2-0.8
		c-0.2-0.3-0.6-1-0.6-1s0.6,1,1.8,1.4c1.2,0.4,2.7,0.4,3.9-1.2c0.5-0.6,0.7-1.1,0.7-1.5c10.2-1.9,18.4-7.5,21.5-14.9
		c0.5,0.2,1.3,0.2,2.4-0.5c1.7-1,1.7-2.5,1.3-3.5c-0.4-1.1-1.5-1.6-1.5-1.6s0.8,0.4,1.1,0.6c0.3,0.1,0.7,0.1,0.9-0.2
		c0.2-0.3,0-0.6,0-0.6S67.6,25.3,67.6,24.9z M64.3,18.8c0,0-0.5,0-1,0.1c0-0.1-0.1-0.1-0.1-0.2C63.5,18.6,63.9,18.6,64.3,18.8z
		 M34.3,2.2c0.7,0,1.3,0.5,1.3,1.2c0,0.7-0.6,1.2-1.3,1.2c-0.7,0-1.3-0.5-1.3-1.2C33,2.8,33.6,2.2,34.3,2.2z M5.4,18.7
		c0,0.1-0.1,0.1-0.1,0.2c-0.5-0.1-1-0.1-1-0.1C4.7,18.6,5.1,18.6,5.4,18.7z M4.3,30.9c0,0,0.5,0,1-0.1c0,0.1,0.1,0.1,0.1,0.2
		C5.1,31.1,4.7,31.1,4.3,30.9z M34.3,47.5c-0.7,0-1.3-0.5-1.3-1.2c0-0.7,0.6-1.2,1.3-1.2c0.7,0,1.3,0.5,1.3,1.2
		C35.6,47,35,47.5,34.3,47.5z M63.2,31.1c0-0.1,0.1-0.1,0.1-0.2c0.5,0.1,1,0.1,1,0.1C63.9,31.1,63.5,31.1,63.2,31.1z M64.6,23.4
		c0,0-1,0.1-1.5-0.9c-0.5-1-0.1-1.6-0.1-1.6s-0.8,0.3-0.8,1.4c0,1.1,0.5,1.5,0.5,1.5s-1.2-0.9-1.9-0.4c0,0,0.5,0.2,0.7,0.7
		c0,0-0.9-0.5-1.6-0.2c-0.7,0.2-1.2,1-1.2,1s0.5,0.8,1.2,1c0.7,0.2,1.6-0.2,1.6-0.2c-0.2,0.5-0.7,0.7-0.7,0.7
		c0.7,0.4,1.9-0.4,1.9-0.4s-0.5,0.4-0.5,1.5c0,1.1,0.8,1.4,0.8,1.4s-0.4-0.6,0.1-1.6c0.5-1,1.5-0.9,1.5-0.9s1.2,0.7,0.8,1.6
		c-0.4,0.9-1.8,0.6-1.8,0.6c0.4,0.6,1.6,0.2,1.6,0.2c-0.5,0.7-2,0.4-2,0.4c0.5,0.8,2,0.3,2,0.3s-0.2,0.4-1.3,0.6c-1,0.2-2-0.1-2-0.1
		c0.1,0.2,0.3,0.4,0.5,0.6c-2.8,7.3-10.9,13-21,14.8c-0.1-0.1-0.2-0.2-0.3-0.2c0,0,0.4,0.8,0,1.5c0,0,0.1-1.9-1-2.2
		c0,0,0.3,0.9,0.1,1.9c-0.2,0.9-0.7,1.2-0.7,1.2s0.6-1.4-0.3-1.8c0,0,0.3,1.4-0.5,1.8c0,0,0.5-1.1-0.2-1.4c0,0,0.3,1.2-0.7,1.6
		C36.8,48.1,36,47,36,47s-0.1-0.9,1-1.4c1.1-0.5,1.8-0.1,1.8-0.1s-0.3-0.7-1.5-0.7c-1.2,0-1.7,0.4-1.7,0.4s1-1.1,0.5-1.7
		c0,0-0.3,0.4-0.8,0.6c0,0,0.5-0.8,0.3-1.4c-0.3-0.6-1.2-1.1-1.2-1.1s-0.9,0.5-1.2,1.1c-0.3,0.6,0.3,1.4,0.3,1.4
		c-0.6-0.1-0.8-0.6-0.8-0.6c-0.5,0.6,0.5,1.7,0.5,1.7s-0.5-0.4-1.7-0.4c-1.2,0-1.5,0.7-1.5,0.7s0.7-0.4,1.8,0.1c1.1,0.5,1,1.4,1,1.4
		s-0.8,1.1-1.8,0.7c-1-0.4-0.7-1.6-0.7-1.6c-0.6,0.3-0.2,1.4-0.2,1.4c-0.8-0.4-0.5-1.8-0.5-1.8c-0.9,0.4-0.3,1.8-0.3,1.8
		s-0.4-0.2-0.7-1.2c-0.2-0.9,0.1-1.9,0.1-1.9c-1.1,0.3-1,2.2-1,2.2c-0.4-0.7,0-1.5,0-1.5c-0.1,0-0.2,0.1-0.3,0.2
		c-10.2-1.8-18.2-7.5-21-14.8c0.2-0.1,0.4-0.3,0.5-0.6c0,0-1,0.3-2,0.1c-1-0.2-1.3-0.6-1.3-0.6s1.5,0.5,2-0.3c0,0-1.6,0.3-2-0.4
		c0,0,1.2,0.4,1.6-0.2c0,0-1.3,0.3-1.8-0.6C2.8,27.1,4,26.4,4,26.4s1-0.1,1.5,0.9c0.5,1,0.1,1.6,0.1,1.6s0.8-0.3,0.8-1.4
		C6.5,26.4,6,26,6,26s1.2,0.9,1.9,0.4c0,0-0.5-0.2-0.7-0.7c0,0,0.9,0.5,1.6,0.2c0.7-0.2,1.2-1,1.2-1s-0.5-0.8-1.2-1
		c-0.7-0.2-1.6,0.2-1.6,0.2c0.2-0.5,0.7-0.7,0.7-0.7C7.2,22.9,6,23.8,6,23.8s0.5-0.4,0.5-1.5c0-1.1-0.8-1.4-0.8-1.4s0.4,0.6-0.1,1.6
		C5,23.5,4,23.4,4,23.4s-1.2-0.7-0.8-1.6S5,21.1,5,21.1c-0.4-0.6-1.6-0.1-1.6-0.1c0.5-0.7,2-0.4,2-0.4c-0.5-0.8-2-0.3-2-0.3
		s0.2-0.4,1.3-0.6c1-0.2,2,0.1,2,0.1c-0.1-0.2-0.3-0.4-0.5-0.6c2.8-7.3,10.9-13,21-14.8c0.1,0.1,0.2,0.2,0.3,0.2c0,0-0.4-0.8,0-1.5
		c0,0-0.1,1.9,1,2.2c0,0-0.3-0.9-0.1-1.9c0.2-0.9,0.7-1.2,0.7-1.2S28.6,3.6,29.5,4c0,0-0.3-1.4,0.5-1.8c0,0-0.5,1.1,0.2,1.4
		c0,0-0.3-1.2,0.7-1.6c1-0.4,1.8,0.7,1.8,0.7s0.1,0.9-1,1.4c-1.1,0.5-1.8,0.1-1.8,0.1S30.2,5,31.4,5c1.2,0,1.7-0.4,1.7-0.4
		s-1,1.1-0.5,1.7c0,0,0.3-0.4,0.8-0.6c0,0-0.5,0.8-0.3,1.4c0.3,0.6,1.2,1.1,1.2,1.1s0.9-0.5,1.2-1.1c0.3-0.6-0.3-1.4-0.3-1.4
		C35.7,5.8,36,6.2,36,6.2c0.5-0.6-0.5-1.7-0.5-1.7S36,5,37.2,5c1.2,0,1.5-0.7,1.5-0.7S38,4.6,36.9,4.1c-1.1-0.5-1-1.4-1-1.4
		s0.8-1.1,1.8-0.7c1,0.4,0.7,1.6,0.7,1.6c0.6-0.3,0.2-1.4,0.2-1.4C39.5,2.6,39.1,4,39.1,4c0.9-0.4,0.3-1.8,0.3-1.8s0.4,0.2,0.7,1.2
		C40.3,4.3,40,5.2,40,5.2C41.1,4.9,41,3,41,3c0.4,0.7,0,1.5,0,1.5c0.1,0,0.2-0.1,0.3-0.2c10.2,1.8,18.2,7.5,21,14.8
		c-0.2,0.1-0.4,0.3-0.5,0.6c0,0,1-0.3,2-0.1c1,0.2,1.3,0.6,1.3,0.6s-1.5-0.5-2,0.3c0,0,1.6-0.3,2,0.4c0,0-1.2-0.4-1.6,0.1
		c0,0,1.3-0.3,1.8,0.6C65.8,22.6,64.6,23.4,64.6,23.4z M65.1,24.9c0,0.7-0.6,1.2-1.3,1.2c-0.7,0-1.3-0.5-1.3-1.2
		c0-0.7,0.6-1.2,1.3-1.2C64.5,23.7,65.1,24.2,65.1,24.9z M3.5,24.9c0-0.7,0.6-1.2,1.3-1.2c0.7,0,1.3,0.5,1.3,1.2
		c0,0.7-0.6,1.2-1.3,1.2C4.1,26.1,3.5,25.5,3.5,24.9z"/>
	<ellipse fill="#6D6155" cx="34.3" cy="3.4" rx="0.9" ry="0.8"/>
	<ellipse fill="#6D6155" cx="4.8" cy="24.9" rx="0.9" ry="0.8"/>
	<ellipse fill="#6D6155" cx="34.3" cy="46.3" rx="0.9" ry="0.8"/>
	<path fill="none" d="M34.6,28.8c0,0.1,0,0.1,0.1,0.2C34.7,28.9,34.7,28.9,34.6,28.8C34.6,28.8,34.6,28.8,34.6,28.8z"/>
	<path fill="#6D6155" d="M34.1,8.3c-13.1,0-23.7,7.4-23.7,16.4c0,9.1,10.6,16.4,23.7,16.4c13.1,0,23.7-7.4,23.7-16.4
		C57.9,15.6,47.2,8.3,34.1,8.3z M34.2,11c3.1,0,5.6,2.5,5.6,5.6c0,2.2-1.3,4.1-3.1,5c1.4-0.8,2.3-2.4,2.3-4.1c0-2.6-2.1-4.8-4.8-4.8
		c-2.6,0-4.8,2.1-4.8,4.8c0,1.7,0.9,3.2,2.3,4.1c-1.8-0.9-3.1-2.8-3.1-5C28.6,13.6,31.1,11,34.2,11z M22.9,26.7
		c0-3.1,2.5-5.6,5.6-5.6c0.8,0,1.6,0.2,2.3,0.5c-0.4-0.1-0.8-0.1-1.2-0.1c-2.6,0-4.8,2.1-4.8,4.8s2.1,4.8,4.8,4.8
		c1.8,0,3.3-1,4.1-2.4c-0.8,2.2-2.9,3.7-5.3,3.7C25.4,32.3,22.9,29.8,22.9,26.7z M42.6,31.5c-2.7,1.6-6.1,0.6-7.7-2.1
		c-0.1-0.2-0.2-0.3-0.3-0.5c0.9,3.1,1.9,6.2,2.8,8.7c-2,0.9-4.4,0.9-6.4,0c0.9-2.6,1.9-5.8,2.9-9.1c-0.5,3-1,5.9-1.5,8.4
		c1.1,0.9,2.4,0.9,3.5,0c-0.5-2.4-1-5.3-1.5-8.2c0-0.1,0-0.1-0.1-0.2c0,0,0,0.1,0.1,0.1c0,0,0-0.1,0-0.1c0,0,0,0.1,0,0.1
		c1.4,2.2,4.2,2.9,6.5,1.6c2.3-1.3,3.1-4.3,1.8-6.6c-1.1-1.9-3.3-2.8-5.3-2.3c2.6-1.2,5.8-0.2,7.2,2.3C46.2,26.5,45.3,30,42.6,31.5z
		"/>
	<path fill="#FFFFFF" d="M34.7,28.9C34.7,28.9,34.7,28.9,34.7,28.9c0,0.1,0.1,0.2,0.1,0.3C34.7,29.1,34.7,29,34.7,28.9
		C34.7,28.9,34.7,28.9,34.7,28.9z"/>
	<path fill="#FFFFFF" d="M34.6,28.8C34.7,28.8,34.7,28.8,34.6,28.8c0,0.1,0,0.1,0,0.1C34.7,28.9,34.7,28.8,34.6,28.8z"/>
	<text transform="matrix(1 0 0 1 66.7707 43.1105)" fill="#6D6155" font-family="'Cambria'" font-size="48px">ArtFlair</text>
	<ellipse fill="#6D6155" cx="63.8" cy="25" rx="0.9" ry="0.8"/>
</g>
</svg>
