<?xml version="1.0" encoding="utf-8"?>
<!-- Generator: Adobe Illustrator 19.2.1, SVG Export Plug-In . SVG Version: 6.00 Build 0)  -->
<svg version="1.1" id="クローバー" xmlns="http://www.w3.org/2000/svg" xmlns:xlink="http://www.w3.org/1999/xlink" x="0px"
	 y="0px" viewBox="0 0 57 42" enable-background="new 0 0 57 42" xml:space="preserve">
<path fill="#4F505E" d="M28.6,1.7c4.3,0,7.9,3.4,8.2,7.6c0-0.2,0-0.4,0-0.6c0-4.5-3.7-8.2-8.2-8.2s-8.2,3.7-8.2,8.2
	c0,0.2,0,0.4,0,0.6C20.7,5,24.3,1.7,28.6,1.7z"/>
<path fill="#6D6255" d="M21.7,13.1c-0.7-1.1-1.2-2.4-1.3-3.9c0,0.2,0,0.4,0,0.6c0,1.9,0.7,3.7,1.7,5.1c0,0,0.1,0,0.1,0
	C22,14.3,21.8,13.8,21.7,13.1z"/>
<path fill="#6D6255" d="M35,15C35,15,35,15,35,15c1.2-1.4,1.9-3.2,1.9-5.1c0-0.2,0-0.4,0-0.6c-0.1,1.4-0.6,2.7-1.3,3.9
	C35.4,13.8,35.2,14.4,35,15z"/>
<path fill="#6D6255" d="M21.6,12.1c0-3.9,3.1-7,7-7c3.9,0,7,3.1,7,7c0,0.4,0,0.7-0.1,1.1c0.7-1.1,1.2-2.4,1.3-3.9
	C36.5,5,33,1.7,28.6,1.7S20.7,5,20.4,9.3c0.1,1.4,0.6,2.7,1.3,3.9C21.7,12.8,21.6,12.4,21.6,12.1z"/>
<path fill="#4F505E" d="M43.8,19.1c-1.8-3-5.2-4.5-8.4-4c0.4,0.2,0.7,0.3,1,0.5c2.5,0.3,4.8,1.7,6.2,4.1c2.2,3.9,1,8.8-2.9,11.1
	c0.4-0.1,0.7-0.3,1-0.5C44.7,28.1,46.1,23,43.8,19.1z"/>
<path fill="#6D6255" d="M30,28c-0.2-0.1-0.4-0.2-0.6-0.3c0,0,0,0.1,0,0.1c0.2,0.7,0.4,1.5,0.7,2.2c2.6,2.3,6.4,2.8,9.6,1
	c0.1,0,0.1-0.1,0.2-0.1C36.2,32.3,32.2,31.1,30,28z"/>
<path fill="#6D6255" d="M42.6,19.7c-1.4-2.4-3.7-3.8-6.2-4.1c0.9,0.6,1.7,1.4,2.3,2.4c1.9,3.3,0.8,7.6-2.6,9.5
	c-1.9,1.1-4.2,1.2-6.1,0.4c2.2,3.1,6.3,4.3,9.8,2.8C43.5,28.5,44.8,23.6,42.6,19.7z"/>
<path fill="#4F505E" d="M13.3,23.8c0-4.2,3.2-7.7,7.3-8.2c0.3-0.2,0.7-0.4,1-0.5c-0.4-0.1-0.9-0.1-1.3-0.1c-4.5,0-8.2,3.7-8.2,8.2
	c0,3.5,2.1,6.4,5.2,7.6C14.9,29.4,13.3,26.8,13.3,23.8z"/>
<path fill="#6D6255" d="M27.9,27.6c-0.3,0.2-0.6,0.3-0.9,0.4c-1.5,2.1-3.9,3.4-6.7,3.4c-1.1,0-2.1-0.2-3-0.6
	c1.2,0.7,2.7,1.2,4.2,1.2c2.3,0,4.3-0.9,5.8-2.4c0.2-0.6,0.4-1.3,0.6-1.9C27.9,27.7,27.9,27.6,27.9,27.6z"/>
<path fill="#6D6255" d="M27,28c-0.8,0.3-1.7,0.5-2.6,0.5c-3.9,0-7-3.1-7-7c0-2.5,1.3-4.6,3.2-5.9c-4.1,0.5-7.3,3.9-7.3,8.2
	c0,3,1.6,5.6,4,7c0.9,0.4,2,0.6,3,0.6C23.1,31.4,25.5,30.1,27,28z"/>
<g>
	<path fill="#4F505E" d="M24,40c-0.1,0.2-0.1,0.4-0.2,0.5c3,1.2,6.5,1.2,9.6,0c-0.1-0.2-0.1-0.4-0.2-0.5C30.3,41.2,27,41.2,24,40z"
		/>
</g>
<path fill="#6D6255" d="M27.3,29.7c-1.1,3.7-2.3,7.2-3.3,10.2c0.1,0,0.1,0,0.2,0.1c1.1-3.1,2.3-6.8,3.4-10.6
	C27.5,29.5,27.4,29.6,27.3,29.7z"/>
<path fill="#6D6255" d="M29.7,29.7c1.1,3.7,2.3,7.2,3.3,10.3c0.1,0,0.1,0,0.2-0.1c-1-2.9-2.2-6.4-3.3-9.9
	C29.9,29.9,29.8,29.8,29.7,29.7z"/>
<path fill="#6D6255" d="M29.6,29.2c0.1,0.2,0.1,0.4,0.2,0.6c0.1,0.1,0.2,0.2,0.3,0.2c-0.2-0.7-0.4-1.5-0.7-2.2
	C29.4,28.2,29.5,28.7,29.6,29.2z"/>
<path fill="#6D6255" d="M27.6,29.4c0-0.1,0-0.2,0.1-0.2c0.1-0.5,0.2-0.9,0.2-1.4c-0.2,0.6-0.4,1.3-0.6,1.9
	C27.4,29.6,27.5,29.5,27.6,29.4z"/>
<path fill="#6D6255" d="M29.7,29.6c0.5,3,1,5.8,1.5,8.3c-1.6,1.3-3.5,1.3-5.1,0c0.5-2.6,1-5.5,1.6-8.6c0,0,0,0,0,0
	c-1.2,3.8-2.3,7.5-3.4,10.6c2.9,1.2,6.1,1.2,8.9,0C32,36.9,30.9,33.4,29.7,29.6C29.7,29.7,29.7,29.7,29.7,29.6z"/>
<path fill="#6D6255" d="M29.7,29.7c-0.1-0.2-0.1-0.4-0.2-0.6C29.6,29.3,29.6,29.5,29.7,29.7C29.7,29.7,29.7,29.7,29.7,29.7z"/>
<path fill="#6D6255" d="M27.6,29.4C27.6,29.4,27.6,29.4,27.6,29.4c0-0.1,0.1-0.2,0.1-0.2C27.6,29.2,27.6,29.3,27.6,29.4z"/>
<g>
	<path fill="#4F505E" d="M0.3,28.3c0,0,0.1-0.1,0.4-0.3c0.2-0.2,0.6-0.4,1-0.6c0.4-0.2,0.9-0.4,1.4-0.5c0.3-0.1,0.5-0.1,0.8-0.1
		c0.3,0,0.6,0,0.8,0c0.3,0,0.6,0,0.8,0c0.3,0,0.5,0.1,0.8,0.1c0.5,0.1,1,0.3,1.4,0.5c0.4,0.2,0.8,0.4,1,0.6c0.2,0.2,0.4,0.3,0.4,0.3
		s-0.1,0.1-0.4,0.3c-0.2,0.2-0.6,0.4-1,0.6c-0.4,0.2-0.9,0.4-1.4,0.5c-0.3,0.1-0.5,0.1-0.8,0.1c-0.3,0-0.6,0-0.8,0
		c-0.3,0-0.6,0-0.8,0c-0.3,0-0.5-0.1-0.8-0.1c-0.5-0.1-1-0.3-1.4-0.5c-0.4-0.2-0.8-0.4-1-0.6C0.4,28.4,0.3,28.3,0.3,28.3z"/>
	<path fill="#736357" d="M0.3,28c0,0,0.1-0.1,0.4-0.3c0.2-0.2,0.6-0.3,1-0.5c0.4-0.2,0.9-0.3,1.4-0.4c0.3-0.1,0.5-0.1,0.8-0.1
		c0.3,0,0.6,0,0.8,0c0.3,0,0.6,0,0.8,0c0.3,0,0.5,0.1,0.8,0.1c0.5,0.1,1,0.2,1.4,0.4c0.4,0.2,0.8,0.4,1,0.5C9.2,27.9,9.3,28,9.3,28
		s-0.1,0.1-0.4,0.3c-0.2,0.2-0.6,0.3-1,0.5c-0.4,0.2-0.9,0.3-1.4,0.4c-0.3,0-0.5,0.1-0.8,0.1c-0.3,0-0.6,0-0.8,0c-0.3,0-0.6,0-0.8,0
		c-0.3,0-0.5-0.1-0.8-0.1c-0.5-0.1-1-0.2-1.4-0.4c-0.4-0.2-0.8-0.4-1-0.5C0.4,28.1,0.3,28,0.3,28z"/>
</g>
<g>
	<path fill="#4F505E" d="M47.7,28.3c0,0,0.1-0.1,0.4-0.3c0.2-0.2,0.6-0.4,1-0.6c0.4-0.2,0.9-0.4,1.4-0.5c0.3-0.1,0.5-0.1,0.8-0.1
		c0.3,0,0.6,0,0.8,0c0.3,0,0.6,0,0.8,0c0.3,0,0.5,0.1,0.8,0.1c0.5,0.1,1,0.3,1.4,0.5c0.4,0.2,0.8,0.4,1,0.6c0.2,0.2,0.4,0.3,0.4,0.3
		s-0.1,0.1-0.4,0.3c-0.2,0.2-0.6,0.4-1,0.6c-0.4,0.2-0.9,0.4-1.4,0.5c-0.3,0.1-0.5,0.1-0.8,0.1c-0.3,0-0.6,0-0.8,0
		c-0.3,0-0.6,0-0.8,0c-0.3,0-0.5-0.1-0.8-0.1c-0.5-0.1-1-0.3-1.4-0.5c-0.4-0.2-0.8-0.4-1-0.6C47.8,28.4,47.7,28.3,47.7,28.3z"/>
	<path fill="#736357" d="M47.7,28c0,0,0.1-0.1,0.4-0.3c0.2-0.2,0.6-0.3,1-0.5c0.4-0.2,0.9-0.3,1.4-0.4c0.3-0.1,0.5-0.1,0.8-0.1
		c0.3,0,0.6,0,0.8,0c0.3,0,0.6,0,0.8,0c0.3,0,0.5,0.1,0.8,0.1c0.5,0.1,1,0.2,1.4,0.4c0.4,0.2,0.8,0.4,1,0.5c0.2,0.2,0.4,0.3,0.4,0.3
		s-0.1,0.1-0.4,0.3c-0.2,0.2-0.6,0.3-1,0.5c-0.4,0.2-0.9,0.3-1.4,0.4c-0.3,0-0.5,0.1-0.8,0.1c-0.3,0-0.6,0-0.8,0c-0.3,0-0.6,0-0.8,0
		c-0.3,0-0.5-0.1-0.8-0.1c-0.5-0.1-1-0.2-1.4-0.4c-0.4-0.2-0.8-0.4-1-0.5C47.8,28.1,47.7,28,47.7,28z"/>
</g>
</svg>
